<svg version="1.1" id="Layer_1" xmlns="http://www.w3.org/2000/svg" xmlns:xlink="http://www.w3.org/1999/xlink" x="0px" y="0px"
	 width="100%" viewBox="0 0 865 339" enable-background="new 0 0 865 339" xml:space="preserve">
<path fill="#FFFEFE" opacity="1.000000" stroke="none" 
	d="
M562.000000,340.000000 
	C376.166656,340.000000 190.833328,339.986786 5.500054,340.093689 
	C1.750720,340.095856 0.901458,339.249603 0.905430,335.499908 
	C1.022137,225.333359 1.020439,115.166641 0.904652,5.000100 
	C0.901053,1.576101 1.576556,0.904679 5.000033,0.905902 
	C290.666656,1.007924 576.333313,1.007924 861.999939,0.905902 
	C865.423462,0.904679 866.098999,1.576102 866.095398,5.000100 
	C865.979675,115.333313 865.979614,225.666687 866.095337,335.999908 
	C866.098938,339.423920 865.424011,340.099609 861.999878,340.095551 
	C762.166687,339.977478 662.333313,340.000000 562.000000,340.000000 
z"/>
<path fill="#7D6E5B" opacity="1.000000" stroke="none" 
	d="
M133.936157,78.962036 
	C166.349319,68.928001 196.438858,72.821518 224.300293,91.727821 
	C253.783752,111.734802 270.218567,139.404465 271.475098,175.206894 
	C272.344635,199.983368 265.122131,222.673859 249.721680,242.193451 
	C226.977631,271.020844 196.683319,284.821869 160.212128,282.706360 
	C111.140701,279.860016 72.603683,243.834564 64.049774,197.800232 
	C58.641018,168.692078 64.596375,141.820770 81.524002,117.654274 
	C94.502167,99.126167 112.037666,86.301270 133.936157,78.962036 
z"/>
<path fill="#403733" opacity="1.000000" stroke="none" 
	d="
M506.996033,179.809052 
	C506.996033,168.171844 506.996033,168.171890 496.018433,168.171844 
	C490.020447,168.171829 484.020935,168.093674 478.025238,168.210114 
	C475.643250,168.256363 474.321106,167.867889 474.414917,165.000443 
	C474.605469,159.175293 474.568268,153.337280 474.428864,147.509232 
	C474.366516,144.902725 475.275543,144.094513 477.883087,144.108109 
	C496.209747,144.203659 514.537292,144.193024 532.864136,144.116745 
	C535.183289,144.107086 536.062561,144.711044 536.049683,147.172241 
	C535.960876,164.166077 535.925415,181.161270 536.078369,198.154190 
	C536.104553,201.069855 534.356934,202.342346 532.529541,203.665253 
	C516.901550,214.978729 499.449951,221.241898 480.160309,222.147110 
	C468.939758,222.673645 457.874115,221.697998 447.222076,217.790039 
	C427.196747,210.443283 414.442139,196.190598 408.152863,176.067474 
	C402.756409,158.801163 402.439972,141.316833 407.463043,123.914963 
	C415.875092,94.772186 439.750183,76.907516 470.395233,76.459419 
	C481.607391,76.295471 492.708679,76.910194 503.313354,80.983299 
	C519.033875,87.021309 528.815735,98.410027 533.515137,114.475990 
	C534.352539,117.339020 533.732239,118.317162 530.923096,118.798737 
	C523.714722,120.034470 516.542053,121.477654 509.354950,122.837425 
	C507.259186,123.233940 505.789276,123.196442 504.752625,120.574905 
	C499.567291,107.461502 489.325470,101.436348 475.623779,101.046738 
	C459.770355,100.595940 446.190552,105.874557 439.336029,120.808380 
	C430.565460,139.916748 431.019623,159.863297 440.397736,178.682892 
	C448.716187,195.375916 468.157867,201.707596 487.915314,195.593765 
	C492.850250,194.066681 497.455261,191.773956 502.013672,189.319519 
	C505.799377,187.281143 507.968140,184.747147 506.996033,179.809052 
z"/>
<path fill="#403733" opacity="1.000000" stroke="none" 
	d="
M709.402588,140.582397 
	C708.802368,151.884796 709.135254,162.678818 712.062622,173.222488 
	C716.980164,190.934433 732.617065,200.753769 750.236084,196.990738 
	C763.115295,194.240036 769.862793,185.046295 773.104797,173.142303 
	C774.440247,168.238800 776.169495,167.818161 780.482483,169.522614 
	C786.645752,171.958374 793.052856,173.821548 799.444214,175.614151 
	C802.079041,176.353119 802.402283,177.498550 801.791687,179.887024 
	C795.393250,204.919632 774.739319,221.227844 748.892944,222.228226 
	C720.462280,223.328629 698.359070,212.742172 686.696350,186.311401 
	C675.559937,161.073593 676.433044,134.859360 688.168518,109.877663 
	C699.292419,86.197754 724.319336,73.953918 752.136108,76.669388 
	C776.281982,79.026512 793.321716,90.405762 801.154053,114.120445 
	C802.132080,117.081924 801.814270,118.152855 798.743469,118.810989 
	C791.596497,120.342720 784.501160,122.121063 777.402954,123.872368 
	C774.952515,124.476952 773.732544,124.177185 772.766541,121.289101 
	C768.659485,109.010788 759.840820,102.088699 746.980225,101.128891 
	C732.981445,100.084129 721.951904,105.489845 715.033081,118.044174 
	C711.268311,124.875343 710.051941,132.445694 709.402588,140.582397 
z"/>
<path fill="#413834" opacity="1.000000" stroke="none" 
	d="
M348.712372,197.079620 
	C355.051270,195.524979 357.771118,191.242996 358.908691,185.637848 
	C359.973175,180.392868 360.158752,175.072021 360.157928,169.738190 
	C360.153473,141.083664 360.223175,112.428772 360.074341,83.775009 
	C360.054810,80.010231 360.772858,78.495850 364.916168,78.724167 
	C371.725922,79.099449 378.571594,78.850838 385.401794,78.811172 
	C387.377838,78.799698 388.919495,78.792946 388.883575,81.589073 
	C388.460266,114.559151 389.620148,147.540375 388.231506,180.503525 
	C387.755402,191.804916 384.695129,202.130402 376.315948,210.310425 
	C372.083740,214.442032 367.256653,217.570892 361.601624,219.405411 
	C350.217316,223.098572 338.619659,223.413345 327.133179,220.556046 
	C311.030975,216.550537 300.675812,203.831085 299.074310,186.265427 
	C297.974945,174.206940 296.164062,176.674637 308.258057,175.027496 
	C312.708984,174.421326 317.233154,174.239761 321.629059,173.379715 
	C324.896667,172.740433 325.773865,173.931473 325.829712,176.854263 
	C325.867645,178.839539 326.106903,180.847137 326.501221,182.795135 
	C328.897339,194.632980 336.321503,199.491364 348.712372,197.079620 
z"/>
<path fill="#E33D2E" opacity="1.000000" stroke="none" 
	d="
M580.610718,133.642502 
	C599.168945,133.993347 617.330139,134.052689 635.984558,134.032410 
	C636.946716,133.468246 637.492126,132.966324 638.141968,132.929138 
	C646.862427,132.430008 655.597168,131.464584 664.647095,133.799240 
	C665.988342,141.839600 665.342285,149.602188 665.202026,157.723816 
	C663.969788,158.984604 662.719727,159.452713 661.379883,159.440613 
	C653.330505,159.367859 645.256104,160.303482 636.833740,158.606659 
	C618.267517,158.292740 600.106262,158.250473 581.483826,158.284058 
	C578.631897,159.947037 575.905457,159.656723 573.292175,159.545532 
	C566.533691,159.258026 559.711365,160.486649 552.641541,158.409714 
	C552.198914,150.408829 552.129761,142.726227 552.164673,134.594879 
	C552.825623,133.517487 553.486450,132.932129 554.317688,132.881836 
	C562.960388,132.358963 571.611267,131.599136 580.610718,133.642502 
z"/>
<path fill="#403733" opacity="1.000000" stroke="none" 
	d="
M552.221252,158.551117 
	C561.546814,158.118683 570.825562,158.145935 580.563477,158.266571 
	C581.016174,177.495499 580.907959,196.632065 581.094238,215.765747 
	C581.129028,219.336349 580.133545,220.230286 576.680115,220.086807 
	C569.869629,219.803833 563.032349,219.824463 556.219666,220.080276 
	C552.906555,220.204681 552.059753,219.165527 552.086182,215.917770 
	C552.239990,196.949783 552.169312,177.979996 552.221252,158.551117 
z"/>
<path fill="#3F3531" opacity="1.000000" stroke="none" 
	d="
M636.432983,158.774353 
	C645.645630,158.260925 654.862366,158.186829 664.549316,158.103027 
	C665.068054,177.542068 665.063782,196.991241 665.224365,216.439041 
	C665.247437,219.234070 664.498779,220.140259 661.643738,220.062820 
	C654.500061,219.869095 647.341125,219.819260 640.201660,220.079651 
	C636.936157,220.198761 636.406738,218.966293 636.421875,216.071320 
	C636.520813,197.119263 636.451538,178.166336 636.432983,158.774353 
z"/>
<path fill="#403733" opacity="1.000000" stroke="none" 
	d="
M581.005676,133.471039 
	C571.728516,133.987137 562.449341,134.040283 552.719421,134.119781 
	C552.232605,116.872391 552.266663,99.597954 552.093567,82.325584 
	C552.063477,79.329285 553.159790,78.722847 555.849548,78.779152 
	C562.989075,78.928612 570.140198,79.005875 577.273621,78.749634 
	C580.464417,78.635017 581.096069,79.698570 581.070984,82.677780 
	C580.929810,99.453537 581.003357,116.231110 581.005676,133.471039 
z"/>
<path fill="#3E3531" opacity="1.000000" stroke="none" 
	d="
M665.088928,133.626007 
	C655.801697,134.077591 646.572327,134.053787 636.910400,133.991394 
	C636.492249,117.148064 636.602417,100.342430 636.443604,83.539337 
	C636.410278,80.018845 637.001038,78.511444 640.986816,78.734215 
	C647.621460,79.105042 654.302307,79.057861 660.943115,78.747078 
	C664.594910,78.576180 665.277466,79.871033 665.241943,83.236290 
	C665.066467,99.872871 665.152771,116.512230 665.088928,133.626007 
z"/>
<path fill="#E73C2C" opacity="1.000000" stroke="none" 
	d="
M239.483902,92.630814 
	C239.899368,83.598587 244.523636,77.709587 251.488724,76.902771 
	C259.516235,75.972870 266.130676,80.139549 268.006226,87.307732 
	C270.140442,95.464539 265.521881,103.222641 257.293335,105.302826 
	C248.924026,107.418594 241.750488,102.462303 239.483902,92.630814 
z"/>
<path fill="#332826" opacity="1.000000" stroke="none" 
	d="
M620.217407,247.088638 
	C620.217407,249.688614 620.217407,251.819839 620.217407,254.931900 
	C623.441833,251.958862 623.455261,248.472137 625.064575,245.879486 
	C626.321777,243.854034 625.361389,239.878662 629.184204,240.059753 
	C632.710571,240.226822 632.020508,243.957977 633.204834,246.072952 
	C634.330688,248.083435 635.173340,250.283340 635.877197,252.484161 
	C636.162170,253.375168 637.617188,254.667511 635.918335,255.429565 
	C634.952881,255.862640 633.740417,255.715149 632.920471,254.440598 
	C630.377563,250.488220 627.835510,250.392578 625.201294,254.505829 
	C623.320007,257.443481 620.510925,253.554688 617.941711,255.252975 
	C616.952026,255.907181 617.209412,252.914780 616.996094,251.577713 
	C616.841553,250.609421 616.965881,249.596634 616.965881,248.449219 
	C615.408752,249.269577 615.662476,250.766510 615.240906,251.888336 
	C614.689087,253.356598 615.106750,255.468384 612.696655,255.526245 
	C610.234558,255.585419 610.768127,253.268188 610.041748,251.951172 
	C609.816650,251.542923 609.553772,251.155487 609.308350,250.758835 
	C608.931763,250.955978 608.545715,251.028976 608.398438,251.256500 
	C607.547546,252.571594 609.569885,255.633865 606.435181,255.356628 
	C604.072876,255.147690 605.271790,252.653641 605.170105,251.189362 
	C604.986389,248.541824 605.053711,245.870148 605.145996,243.213058 
	C605.191589,241.900101 604.429260,240.120407 606.945496,239.933716 
	C609.092224,239.774460 610.445068,240.287231 610.895630,242.565445 
	C611.247620,244.344711 611.788879,246.086548 612.264832,247.917633 
	C614.180298,246.874939 613.833618,245.010971 614.235901,243.508438 
	C614.818970,241.330368 615.371033,239.488754 618.378723,239.917313 
	C621.582153,240.373764 619.766479,242.682999 620.178955,244.136856 
	C620.397278,244.906250 620.217529,245.788559 620.217407,247.088638 
z"/>
<path fill="#372D2B" opacity="1.000000" stroke="none" 
	d="
M538.876953,253.402344 
	C537.200623,253.897675 535.989929,254.869781 534.613953,255.262009 
	C527.257812,257.358917 525.103699,255.766479 525.103577,248.442581 
	C525.103577,247.944000 525.103455,247.445404 525.103516,246.946823 
	C525.103638,239.937332 527.360413,238.208374 534.190002,240.081619 
	C536.571716,240.734879 537.815247,242.223404 537.365906,244.874252 
	C537.190979,245.906494 535.603455,247.003983 536.889038,247.908173 
	C538.379211,248.956207 537.487000,251.767471 539.423096,251.766434 
	C541.450806,251.765350 541.196411,249.290909 541.877502,247.895050 
	C542.746033,246.115189 543.327759,244.197189 544.075806,242.356094 
	C544.565125,241.151794 544.905823,239.920914 546.716919,239.905060 
	C548.434204,239.890015 548.949585,240.811371 549.465332,242.141861 
	C550.840820,245.690170 552.346191,249.188004 553.735474,252.731186 
	C554.069397,253.582733 554.864563,254.736282 553.678589,255.367889 
	C552.646362,255.917572 551.470581,255.771469 550.696472,254.496933 
	C548.181702,250.356262 545.735596,250.595612 542.953003,254.420609 
	C541.674683,256.177765 539.931091,256.463104 538.876953,253.402344 
z"/>
<path fill="#3A302D" opacity="1.000000" stroke="none" 
	d="
M462.142273,269.838531 
	C463.312836,272.817200 464.405396,275.421265 465.391235,278.065125 
	C465.737732,278.994293 467.087646,280.204285 465.383362,280.933075 
	C464.392303,281.356903 463.198730,281.162567 462.357391,279.925201 
	C459.886078,276.290466 457.457367,276.384796 454.819397,279.977844 
	C453.364685,281.959259 447.652496,281.418701 446.017822,279.385254 
	C445.289978,278.479858 444.724457,277.445618 444.022278,276.517517 
	C443.426605,275.730225 442.796600,274.819946 441.611176,275.120178 
	C440.240234,275.467438 440.783813,276.693939 440.612274,277.589172 
	C440.363861,278.885773 441.376678,280.948242 438.919189,280.983643 
	C435.994904,281.025787 437.313080,278.656067 437.143585,277.283539 
	C436.940857,275.641907 437.095642,273.956146 437.095673,272.289490 
	C437.095886,265.588623 440.577026,263.286011 446.896179,265.851746 
	C449.453796,266.890198 451.104248,269.667633 449.480743,271.321350 
	C445.949951,274.917877 448.609131,276.818665 450.707153,279.502960 
	C453.174011,276.448364 453.682465,272.632721 455.293762,269.350006 
	C456.036407,267.836945 455.911499,265.520264 458.468781,265.405487 
	C461.382294,265.274689 461.048523,267.939270 462.142273,269.838531 
z"/>
<path fill="#413834" opacity="1.000000" stroke="none" 
	d="
M647.326172,245.681793 
	C647.357300,244.088074 647.370300,242.922806 647.374817,241.757507 
	C647.379517,240.547089 647.956360,239.965683 649.191406,239.956451 
	C650.474304,239.946869 650.919617,240.609543 650.916260,241.792755 
	C650.905396,245.621857 650.914795,249.451019 650.921753,253.280167 
	C650.923645,254.320847 650.848267,255.334290 649.554932,255.557419 
	C648.329163,255.768890 647.279968,255.526260 646.555542,254.343903 
	C645.283142,252.267242 643.942932,250.232086 641.632935,248.311890 
	C641.632935,250.012283 641.626099,251.712692 641.635071,253.413040 
	C641.642334,254.790771 641.124817,255.691910 639.596069,255.564896 
	C638.292358,255.456604 638.080078,254.502106 638.080688,253.423904 
	C638.082642,249.761185 638.056763,246.098221 638.093567,242.435883 
	C638.102783,241.522675 637.752502,240.286240 639.159546,240.053314 
	C640.271179,239.869278 641.465759,239.640915 642.236267,240.952591 
	C643.245056,242.669876 644.304138,244.361176 645.421936,246.009140 
	C645.918701,246.741440 646.581787,247.986542 647.326172,245.681793 
z"/>
<path fill="#413834" opacity="1.000000" stroke="none" 
	d="
M423.296082,253.730652 
	C421.960907,251.638336 420.850403,249.847672 419.023560,246.902008 
	C418.842316,249.631546 418.732483,251.135742 418.645477,252.641235 
	C418.570862,253.931900 418.899414,255.584732 416.883545,255.522705 
	C415.270233,255.473099 415.361267,254.077744 415.359924,252.907745 
	C415.355835,249.417725 415.340485,245.927505 415.372925,242.437790 
	C415.381683,241.497833 415.117218,240.289810 416.471161,240.020981 
	C417.625824,239.791733 418.769562,239.837906 419.518036,241.068329 
	C420.785370,243.151627 422.116272,245.196274 423.731628,247.748901 
	C425.114624,245.920258 424.570190,244.275330 424.747070,242.799606 
	C424.887177,241.630630 424.155731,239.865158 426.416962,239.991028 
	C428.589386,240.111969 427.862183,241.844849 427.894073,242.997116 
	C427.981384,246.152344 427.971832,249.312469 427.912567,252.469009 
	C427.831879,256.767212 426.053772,256.512085 423.296082,253.730652 
z"/>
<path fill="#3A302D" opacity="1.000000" stroke="none" 
	d="
M572.387451,273.967010 
	C572.387512,272.171143 572.264648,270.824585 572.420288,269.510986 
	C572.593811,268.046051 571.453735,265.926239 574.010620,265.449799 
	C576.187805,265.044098 576.694092,266.986237 577.636292,268.278992 
	C578.774658,269.840912 579.265320,271.887085 581.092041,273.029541 
	C582.304749,271.484924 581.585938,269.778229 581.739624,268.198059 
	C581.866577,266.892914 581.523071,265.358307 583.611694,265.437439 
	C585.490662,265.508575 585.010986,266.983398 585.028320,268.026764 
	C585.086487,271.522339 585.080994,275.019989 585.028259,278.515747 
	C585.014893,279.399719 585.499329,280.668915 584.076477,280.937866 
	C582.770203,281.184784 581.530396,281.228943 580.690857,279.686340 
	C579.517395,277.530212 578.085022,275.515015 576.169067,272.506073 
	C576.052185,275.119629 575.990479,276.789307 575.898376,278.457336 
	C575.837585,279.558044 576.206787,280.913300 574.401611,281.032349 
	C572.407776,281.163757 572.367432,279.841461 572.387085,278.426849 
	C572.405579,277.095093 572.388733,275.762878 572.387451,273.967010 
z"/>
<path fill="#332826" opacity="1.000000" stroke="none" 
	d="
M491.576965,241.419434 
	C492.312378,242.515091 493.394775,243.481125 492.550720,244.307663 
	C491.586365,245.251984 490.199219,245.404816 489.012207,244.213028 
	C486.957977,242.150543 484.797760,242.229767 483.140808,244.537537 
	C481.518463,246.797119 481.742615,249.389694 483.570923,251.424667 
	C485.707794,253.803162 487.867065,252.621780 489.972260,251.300949 
	C489.331390,249.516342 488.128632,250.213867 487.266907,249.979950 
	C486.507812,249.773880 486.195435,249.348343 486.149536,248.605972 
	C486.105530,247.894394 486.242889,247.111084 487.009277,247.116257 
	C489.050262,247.129974 492.094208,245.864075 492.859100,247.866104 
	C493.692139,250.046524 494.622711,253.510925 490.742035,254.948669 
	C486.828094,256.398743 483.043365,256.511902 480.382263,252.926605 
	C477.884460,249.561295 477.799316,245.514542 480.503601,242.304153 
	C483.470337,238.782227 487.433685,238.991806 491.576965,241.419434 
z"/>
<path fill="#403733" opacity="1.000000" stroke="none" 
	d="
M745.139771,240.311920 
	C747.359863,241.689850 749.012695,244.141891 747.698975,245.419693 
	C743.635803,249.371826 747.446899,251.929260 748.998840,254.967758 
	C745.526917,256.709167 744.322876,254.396393 742.934509,252.329819 
	C742.133179,251.137009 741.531799,249.296478 739.767273,249.598557 
	C737.901855,249.917908 738.790222,251.758789 738.675415,252.937805 
	C738.536560,254.364868 738.484741,255.739380 736.561279,255.547607 
	C734.915100,255.383469 735.093750,254.033279 735.082703,252.878967 
	C735.069885,251.546707 735.078735,250.214233 735.078735,248.881851 
	C735.078308,239.471512 735.078369,239.471512 745.139771,240.311920 
z"/>
<path fill="#3A302D" opacity="1.000000" stroke="none" 
	d="
M672.074707,243.443222 
	C672.143127,244.302368 672.381836,245.042450 672.143799,245.259338 
	C668.214844,248.839569 671.586792,251.719589 673.197693,254.735245 
	C669.788269,255.567642 669.783813,255.570938 667.148987,252.015900 
	C666.280334,250.843918 665.541565,249.040115 663.867554,249.522964 
	C662.246338,249.990585 663.281555,251.819733 663.073059,253.027405 
	C662.885132,254.115845 663.310608,255.498901 661.526306,255.575073 
	C659.690308,255.653458 659.351318,254.508713 659.380066,252.988083 
	C659.421021,250.826508 659.115601,248.618530 659.462769,246.513596 
	C659.824280,244.321426 657.750488,240.553040 661.013489,240.224289 
	C664.664001,239.856461 669.541260,237.799286 672.074707,243.443222 
z"/>
<path fill="#362C29" opacity="1.000000" stroke="none" 
	d="
M430.771332,251.538452 
	C430.771484,250.091843 430.771576,249.092468 430.771576,248.093109 
	C430.771423,239.218307 431.359375,238.722229 440.182739,239.941391 
	C441.184601,240.079819 442.258545,239.925583 442.186096,241.412872 
	C442.120300,242.764618 441.207367,242.960846 440.109558,242.892776 
	C439.777802,242.872192 439.404785,242.794022 439.116882,242.908569 
	C437.526398,243.541397 434.387268,241.434036 434.459137,244.613800 
	C434.517609,247.199570 437.395386,245.431198 438.923065,245.948456 
	C439.987335,246.308792 441.951294,245.204178 441.774170,247.528336 
	C441.646667,249.201263 440.086731,248.614014 439.058990,248.929810 
	C437.433167,249.429352 434.450531,247.429535 434.373352,250.735519 
	C434.294739,254.100983 437.329468,252.267838 438.971649,252.762009 
	C440.260590,253.149872 442.606079,251.893646 442.685883,253.968201 
	C442.786560,256.587097 440.245514,255.387421 438.817505,255.550644 
	C437.173401,255.738541 435.472656,255.435013 433.829742,255.627914 
	C430.816071,255.981781 430.549805,254.237778 430.771332,251.538452 
z"/>
<path fill="#2C211E" opacity="1.000000" stroke="none" 
	d="
M728.319031,255.561661 
	C721.085205,255.833786 719.657104,254.530640 719.920044,247.123993 
	C720.003235,244.778351 717.941223,240.367249 721.647644,240.350266 
	C725.030823,240.334747 722.484314,244.639938 723.147888,246.921783 
	C723.462524,248.003632 723.079956,249.278168 723.341553,250.388031 
	C723.665710,251.763412 724.637939,252.753937 726.192627,252.646027 
	C727.710388,252.540665 728.667603,251.599930 728.727722,250.082016 
	C728.833130,247.422531 728.781799,244.757019 728.809143,242.094162 
	C728.819153,241.118591 728.664490,239.966248 730.172791,240.024948 
	C730.799316,240.049332 731.663574,240.098755 731.997253,240.493759 
	C733.834351,242.668625 731.385071,253.428009 728.319031,255.561661 
z"/>
<path fill="#2C211E" opacity="1.000000" stroke="none" 
	d="
M543.982300,268.242218 
	C544.032959,266.675446 543.864990,265.374969 545.688660,265.509003 
	C546.782532,265.589447 547.001343,266.333466 547.004517,267.208649 
	C547.018921,271.186768 547.019714,275.164978 547.007507,279.143097 
	C547.005066,279.942627 547.088013,280.852783 545.927063,280.972382 
	C544.717102,281.096954 543.681213,280.928925 542.958862,279.715057 
	C541.643799,277.505219 540.212341,275.364685 538.015503,271.918213 
	C538.015503,275.232819 538.033630,277.116669 538.007935,278.999908 
	C537.994751,279.968262 538.135559,281.045715 536.585449,281.020416 
	C535.383423,281.000763 534.794800,280.577911 534.805664,279.298157 
	C534.839355,275.320374 534.806885,271.342072 534.814148,267.363983 
	C534.815735,266.509064 534.949158,265.691650 536.011353,265.517761 
	C537.303833,265.306122 538.251831,265.814911 538.931274,266.919098 
	C540.308472,269.157257 541.704468,271.383820 543.981812,275.044281 
	C543.981812,271.963654 543.981812,270.309540 543.982300,268.242218 
z"/>
<path fill="#3F3531" opacity="1.000000" stroke="none" 
	d="
M499.088715,278.747192 
	C499.083801,276.608337 499.083099,274.943390 499.083069,273.278442 
	C499.082947,265.123657 500.793518,263.765381 508.925262,265.370667 
	C509.979065,265.578705 510.966858,265.741547 510.829865,267.085236 
	C510.720093,268.162201 509.803925,268.206146 508.961060,268.236725 
	C508.628418,268.248810 508.260773,268.157257 507.968201,268.268463 
	C506.346191,268.884949 503.200623,266.838074 503.205811,269.804962 
	C503.210907,272.719849 506.321960,270.882660 507.996948,271.324188 
	C508.957062,271.577271 510.118347,271.380493 510.176483,272.750580 
	C510.256134,274.626251 508.769592,274.189697 507.687378,274.244934 
	C506.690735,274.295807 505.689270,274.298615 504.691498,274.269409 
	C503.416687,274.232117 502.946564,274.880646 502.938416,276.081299 
	C502.930939,277.187347 503.125153,278.062866 504.489777,278.063843 
	C504.822632,278.064087 505.186523,277.988678 505.483337,278.095154 
	C507.365387,278.770782 511.157379,276.430786 510.890350,279.898987 
	C510.691132,282.486572 506.942322,280.903534 504.877991,280.922241 
	C502.960846,280.939575 500.132416,282.632202 499.088715,278.747192 
z"/>
<path fill="#362C29" opacity="1.000000" stroke="none" 
	d="
M562.217407,265.137634 
	C568.797974,266.224640 571.191833,269.238068 570.324646,274.827362 
	C569.585754,279.589294 566.382446,281.860107 561.417297,281.134125 
	C557.486267,280.559418 555.748230,277.992645 555.445312,274.306305 
	C555.054749,269.552917 556.896667,266.253693 562.217407,265.137634 
z"/>
<path fill="#3A302D" opacity="1.000000" stroke="none" 
	d="
M432.181793,274.233093 
	C430.734314,274.245056 429.738983,274.270538 428.744507,274.250519 
	C427.192383,274.219299 426.205444,274.727570 426.272339,276.507172 
	C426.340210,278.314087 427.722595,277.843750 428.766907,278.108704 
	C430.795746,278.623383 434.666534,276.841309 434.516479,279.622467 
	C434.359467,282.532867 430.477509,280.562653 428.288361,281.015350 
	C424.175903,281.865753 421.995239,280.484192 422.926117,275.893219 
	C423.087585,275.096802 422.948975,274.239502 422.948975,273.410339 
	C422.948975,264.380371 422.947815,264.391052 432.016113,265.376526 
	C433.172791,265.502197 434.573547,265.316467 434.472687,267.013000 
	C434.392426,268.362854 433.151123,268.206451 432.179199,268.237366 
	C431.682190,268.253204 431.170441,268.166229 430.689331,268.255249 
	C429.204620,268.530121 426.651154,267.396576 426.539520,269.600494 
	C426.394226,272.469910 429.192139,271.108246 430.729553,271.340332 
	C432.612244,271.624573 435.488312,270.928925 432.181793,274.233093 
z"/>
<path fill="#372D2B" opacity="1.000000" stroke="none" 
	d="
M786.489380,245.285065 
	C789.285767,246.439362 791.995300,247.585434 791.859375,251.127960 
	C791.766907,253.539352 790.079590,255.037170 787.797119,255.615707 
	C785.057800,256.310028 782.420837,255.935181 780.502319,253.698349 
	C779.774536,252.849869 778.577393,251.460403 779.977356,250.341629 
	C780.849792,249.644424 782.207458,249.677383 782.948547,251.031738 
	C783.679810,252.368362 784.930176,252.728195 786.303467,252.574936 
	C787.123474,252.483429 788.033875,252.063644 787.976501,251.078003 
	C787.946594,250.564026 787.411560,249.869110 786.923096,249.635666 
	C785.888306,249.141022 784.729614,248.910065 783.630432,248.544556 
	C781.193359,247.734161 779.394714,246.366806 779.986328,243.470718 
	C780.486023,241.024719 782.232544,239.891342 784.660095,239.795120 
	C787.219604,239.693680 789.973877,239.685089 790.985779,242.575317 
	C792.007996,245.495239 789.881897,244.969421 787.916016,244.389526 
	C787.335388,244.537842 786.497559,244.182220 786.489380,245.285065 
z"/>
<path fill="#372D2B" opacity="1.000000" stroke="none" 
	d="
M695.476440,245.262894 
	C698.198914,246.488632 700.998596,247.460068 700.905579,251.054459 
	C700.841736,253.521103 699.172974,255.008209 696.939453,255.596970 
	C694.040466,256.361145 691.257874,255.939896 689.314209,253.410522 
	C688.726807,252.646133 687.686340,251.343628 688.878174,250.410309 
	C689.723022,249.748703 691.195496,249.502731 691.880432,250.877075 
	C692.494324,252.108704 693.573303,252.474564 694.668213,252.657486 
	C695.659668,252.823105 696.665649,252.399460 696.993896,251.268951 
	C697.297302,250.224274 696.464783,249.777863 695.725586,249.463135 
	C694.975281,249.143723 694.119812,249.080246 693.348999,248.798859 
	C691.146301,247.994675 688.893188,247.254868 688.952820,244.209412 
	C688.994507,242.079300 690.136719,240.593613 691.962402,240.124969 
	C694.525146,239.467117 697.258667,239.205597 699.399048,241.447586 
	C700.107788,242.189972 700.720764,243.193176 700.182312,244.121078 
	C699.454041,245.376205 698.241760,245.014755 696.904297,244.208496 
	C696.457336,244.528809 695.505493,244.196838 695.476440,245.262894 
z"/>
<path fill="#362C29" opacity="1.000000" stroke="none" 
	d="
M405.784424,277.548340 
	C402.135712,281.552307 397.410858,282.326691 394.206879,279.759399 
	C391.493286,277.585052 390.696259,272.070984 392.620544,268.784363 
	C394.630157,265.352020 398.929443,264.023102 402.602386,265.974304 
	C407.407379,268.526825 407.172638,272.761963 405.784424,277.548340 
z"/>
<path fill="#362C29" opacity="1.000000" stroke="none" 
	d="
M450.554077,242.919220 
	C449.345032,243.166031 447.667694,243.097946 448.914368,244.472183 
	C449.702484,245.340927 451.231293,245.602783 452.475586,245.979156 
	C455.112823,246.776855 457.051727,248.245087 456.779968,251.215012 
	C456.515472,254.105637 454.436493,255.561981 451.723938,255.798798 
	C448.823425,256.052032 446.031433,255.650742 444.731140,252.423431 
	C444.444092,251.710907 443.811768,250.780579 444.930786,250.342758 
	C445.620209,250.073013 446.820465,249.966583 447.234131,250.365173 
	C448.176025,251.272690 448.903351,252.377991 450.312836,252.612183 
	C451.382690,252.789963 452.381317,252.459976 452.842651,251.521469 
	C453.465302,250.254776 452.348938,249.748215 451.451874,249.387772 
	C450.230865,248.897171 448.922699,248.626907 447.689453,248.162537 
	C445.291016,247.259460 444.312500,245.423080 445.047699,243.032852 
	C445.934021,240.151276 448.367920,239.671448 451.028625,239.771301 
	C453.330200,239.857697 455.345581,240.430679 456.098572,242.905533 
	C456.579468,244.486053 455.615173,245.207855 454.246246,244.812317 
	C453.072174,244.473083 452.057281,243.582962 450.554077,242.919220 
z"/>
<path fill="#403733" opacity="1.000000" stroke="none" 
	d="
M470.158813,252.843414 
	C471.117035,253.846695 471.419891,254.815292 470.234772,255.404251 
	C469.682648,255.678665 468.930573,255.678329 468.286377,255.618057 
	C465.352325,255.343597 460.855225,257.049469 459.790863,254.850952 
	C457.825012,250.790344 459.195496,245.768219 459.176727,241.148560 
	C459.172546,240.115814 460.158264,239.976639 461.005981,239.953857 
	C462.002258,239.927078 463.025116,239.795120 463.991333,239.965210 
	C466.269226,240.366135 470.388397,238.770248 470.488525,241.070496 
	C470.645294,244.673309 466.653503,242.223465 464.577087,242.875595 
	C463.572296,243.191162 462.631744,243.178757 462.701569,244.566025 
	C462.756165,245.650345 463.442474,245.896530 464.341400,245.920547 
	C464.507416,245.924988 464.694580,245.878662 464.836365,245.939163 
	C466.563568,246.676208 469.959412,244.232391 469.974762,247.521484 
	C469.987457,250.245224 466.771851,248.463379 465.050293,248.876175 
	C463.915131,249.148361 462.706787,248.918869 462.677643,250.636841 
	C462.646179,252.491562 463.723114,252.806122 465.249176,252.750534 
	C466.742157,252.696167 468.239227,252.754715 470.158813,252.843414 
z"/>
<path fill="#332826" opacity="1.000000" stroke="none" 
	d="
M717.727844,246.419128 
	C717.809570,250.083313 717.259949,253.110947 714.052307,254.877762 
	C710.145020,257.029999 705.155090,255.565063 703.372681,251.773056 
	C701.421814,247.622696 703.313171,241.676712 707.062195,240.173874 
	C711.692261,238.317902 715.615295,240.485580 717.727844,246.419128 
z"/>
<path fill="#332826" opacity="1.000000" stroke="none" 
	d="
M523.208130,247.966034 
	C522.184021,253.847382 519.235352,256.444672 514.672974,255.846085 
	C510.471069,255.294800 507.936493,252.002151 508.121185,247.334763 
	C508.295959,242.917374 510.979736,240.015121 515.098755,239.789169 
	C520.092285,239.515274 522.366516,241.705673 523.208130,247.966034 
z"/>
<path fill="#372D2B" opacity="1.000000" stroke="none" 
	d="
M586.204590,240.060638 
	C587.501465,244.571243 586.848511,249.040833 587.024780,253.486572 
	C587.063232,254.456039 587.088989,255.533020 585.602783,255.563446 
	C583.965271,255.596939 583.896973,254.555923 583.720947,253.291794 
	C583.516357,251.823563 584.817627,249.578201 582.534119,249.049698 
	C580.143494,248.496414 577.368469,248.213837 577.985413,252.383575 
	C578.169861,253.630386 578.728027,255.687988 576.189209,255.535904 
	C573.873291,255.397156 574.439575,253.533463 574.417603,252.151917 
	C574.364807,248.839996 574.412170,245.526566 574.403137,242.213791 
	C574.399658,240.929565 574.622925,239.987503 576.266663,239.940323 
	C577.995544,239.890686 578.037903,240.899261 578.056396,242.150482 
	C578.083557,243.991608 577.324036,246.022217 580.721252,246.073929 
	C584.239319,246.127472 583.856201,244.128952 583.763062,241.985641 
	C583.700256,240.541504 584.250122,239.805588 586.204590,240.060638 
z"/>
<path fill="#372D2B" opacity="1.000000" stroke="none" 
	d="
M405.260742,252.049530 
	C402.210236,251.713226 402.473236,257.747803 399.521118,255.037201 
	C397.784943,253.443069 400.578857,250.626633 401.210510,248.330933 
	C401.777496,246.270386 402.796875,244.337372 403.561371,242.327042 
	C404.037231,241.075821 404.342499,239.897324 406.157898,239.908905 
	C407.849762,239.919708 408.459015,240.825607 408.968811,242.150040 
	C410.334686,245.698700 411.780396,249.217010 413.113190,252.777771 
	C413.413849,253.581100 414.574890,254.659576 413.246033,255.328995 
	C412.029144,255.942017 410.437195,255.858963 410.003571,254.195618 
	C409.340179,251.650894 407.460724,252.044189 405.260742,252.049530 
z"/>
<path fill="#332826" opacity="1.000000" stroke="none" 
	d="
M375.118835,271.460083 
	C377.552765,265.887756 380.822083,264.097260 385.162201,265.595459 
	C389.112854,266.959167 391.120056,271.105438 389.888855,275.809906 
	C388.784912,280.028107 385.746002,281.557465 381.589844,281.178711 
	C377.028229,280.763031 375.164490,278.083557 375.118835,271.460083 
z"/>
<path fill="#372D2B" opacity="1.000000" stroke="none" 
	d="
M765.954956,246.033661 
	C766.330627,243.722076 764.875000,240.735107 766.921387,240.232513 
	C770.033630,239.468170 773.486328,240.020340 776.788635,240.154907 
	C777.497681,240.183807 777.612671,241.031342 777.433044,241.739441 
	C777.172302,242.767548 776.323792,242.702927 775.524170,242.918076 
	C773.473999,243.469696 769.667358,241.529861 769.611450,244.192215 
	C769.534790,247.839401 773.475952,245.107330 775.471802,245.955490 
	C776.311707,246.312424 776.980286,246.478271 776.815552,247.547928 
	C776.657532,248.573135 775.875305,248.663208 775.056641,248.902588 
	C773.118896,249.469208 769.482544,247.418381 769.494141,250.700867 
	C769.507874,254.582550 773.377808,252.026382 775.418213,252.734268 
	C776.281189,253.033676 777.621887,252.531708 777.788147,253.884125 
	C778.001404,255.617722 776.583313,255.517151 775.430847,255.592651 
	C775.265747,255.603470 775.098877,255.588135 774.934021,255.600510 
	C765.954956,256.273193 765.954956,256.273346 765.954956,246.033661 
z"/>
<path fill="#362C29" opacity="1.000000" stroke="none" 
	d="
M678.659241,252.081299 
	C680.949707,252.592316 682.938171,252.689789 684.926758,252.783539 
	C685.764832,252.823059 686.663818,252.845551 686.807739,253.922623 
	C686.944031,254.942459 686.301392,255.497864 685.361755,255.512909 
	C682.367493,255.560898 679.353455,255.735428 676.382874,255.466293 
	C674.092163,255.258743 674.881470,253.095612 675.029114,251.859863 
	C675.500000,247.917206 673.028931,243.033752 676.331665,240.292084 
	C678.196655,238.743912 682.420959,239.995300 685.580017,240.079453 
	C686.339722,240.099701 686.639587,240.783157 686.475281,241.537125 
	C686.326599,242.219406 685.996826,242.795563 685.200256,242.819519 
	C683.537415,242.869553 681.872131,242.851929 680.210388,242.921295 
	C679.200684,242.963440 678.228455,243.061783 678.250183,244.522003 
	C678.273315,246.076065 679.420288,245.715973 680.312012,245.974655 
	C682.183350,246.517471 685.710999,244.534393 685.712341,247.224380 
	C685.713989,250.421555 682.073059,248.474930 680.085571,248.849319 
	C678.159058,249.212204 678.129272,250.238312 678.659241,252.081299 
z"/>
<path fill="#413834" opacity="1.000000" stroke="none" 
	d="
M530.914307,265.562286 
	C532.628296,269.403442 532.059326,273.242340 531.688232,276.948639 
	C531.355591,280.270966 528.679321,281.337646 525.473877,281.287476 
	C522.223450,281.236542 519.858337,279.995392 519.489258,276.627686 
	C519.165710,273.675110 519.389282,270.662994 519.363220,267.677246 
	C519.351624,266.350555 519.749695,265.346832 521.303162,265.432709 
	C522.951233,265.523865 522.921936,266.772522 522.923279,267.964783 
	C522.925781,270.287659 522.922302,272.610596 522.937683,274.933380 
	C522.950745,276.897064 523.771301,278.063538 525.916870,278.021729 
	C528.048523,277.980164 528.219910,276.401489 528.304016,274.916443 
	C528.425598,272.765961 528.355164,270.604340 528.355469,268.447449 
	C528.355652,266.912689 528.239380,265.307526 530.914307,265.562286 
z"/>
<path fill="#362C29" opacity="1.000000" stroke="none" 
	d="
M374.394409,245.318298 
	C375.006714,243.897995 375.546692,242.848999 375.824829,241.734665 
	C376.178345,240.318512 377.053619,239.987503 378.364441,239.934387 
	C379.821991,239.875320 380.428345,240.704422 380.879089,241.856033 
	C382.326172,245.553146 383.776886,249.248840 385.230438,252.943390 
	C385.567719,253.800629 386.544617,254.840683 385.147614,255.422272 
	C384.092926,255.861374 382.910614,255.674515 382.118439,254.469513 
	C379.591095,250.624924 377.046265,250.273819 374.497437,254.500473 
	C373.801575,255.654495 372.606964,255.999619 371.512939,255.269958 
	C370.386749,254.518799 371.275421,253.513885 371.604279,252.633408 
	C372.472260,250.309433 373.338715,247.984879 374.394409,245.318298 
z"/>
<path fill="#332826" opacity="1.000000" stroke="none" 
	d="
M417.054443,265.728638 
	C419.987976,266.752014 421.217316,268.506348 420.612396,271.221405 
	C420.036407,273.806824 418.405609,275.374664 415.662140,275.166260 
	C412.987915,274.963074 411.546906,275.660553 411.999451,278.670380 
	C412.162872,279.757141 412.301514,281.049652 410.426636,281.040680 
	C408.580566,281.031830 408.798859,279.795227 408.788757,278.652405 
	C408.771118,276.654999 408.782654,274.657349 408.782562,272.659790 
	C408.782104,265.113892 408.782166,265.113892 417.054443,265.728638 
z"/>
<path fill="#332826" opacity="1.000000" stroke="none" 
	d="
M367.455444,268.464783 
	C363.343628,269.986053 362.026886,273.452850 364.044739,276.485992 
	C365.655548,278.907227 367.718781,278.709778 369.313019,276.676788 
	C370.374176,275.323608 371.299622,274.999268 372.476501,275.963928 
	C374.114075,277.306213 372.438202,278.382935 371.790375,279.276978 
	C370.508545,281.046051 368.489868,281.249023 366.426361,281.216370 
	C363.391876,281.168365 361.231628,279.630402 360.371429,276.919983 
	C359.291809,273.517944 359.199158,269.954285 362.017700,267.164490 
	C364.051697,265.151245 366.574860,264.637878 369.368713,265.569305 
	C371.044342,266.127960 372.307434,267.097656 372.949188,268.739380 
	C373.235992,269.473083 372.714661,269.839661 372.067902,270.206390 
	C369.956085,271.403992 369.268036,269.103119 367.455444,268.464783 
z"/>
<path fill="#3F3531" opacity="1.000000" stroke="none" 
	d="
M390.486603,255.042007 
	C387.769470,256.129944 387.324524,254.751602 387.360352,252.757965 
	C387.399200,250.596634 387.367828,248.434036 387.368195,246.272003 
	C387.369263,240.095932 390.234741,238.070877 396.143494,240.188934 
	C398.358917,240.983063 399.666626,242.541092 399.425903,245.107178 
	C399.171936,247.813950 397.637115,249.849060 395.090118,249.658737 
	C390.821686,249.339798 390.638977,251.737350 390.486603,255.042007 
z"/>
<path fill="#372D2B" opacity="1.000000" stroke="none" 
	d="
M762.133667,250.091339 
	C762.869629,254.595398 758.836243,257.165741 754.415466,255.328506 
	C750.484497,253.694839 748.742310,248.788391 750.488281,244.268646 
	C751.958496,240.462723 756.126770,238.562607 759.944397,240.151276 
	C761.606689,240.843002 763.785645,242.094818 762.824280,244.082764 
	C761.846252,246.104919 760.273499,244.787888 758.882324,243.595184 
	C757.497864,242.408264 755.521973,242.423279 754.510010,244.110001 
	C753.060181,246.526566 752.970398,249.290009 754.737610,251.606339 
	C756.215149,253.543106 758.056763,252.725891 759.440369,251.290100 
	C760.144897,250.558929 760.546082,249.619049 762.133667,250.091339 
z"/>
<path fill="#372D2B" opacity="1.000000" stroke="none" 
	d="
M493.941040,267.152893 
	C494.748871,265.283936 496.061920,264.981995 497.301025,265.734283 
	C498.485016,266.453094 497.362946,267.533081 497.089966,268.356262 
	C495.946014,271.805969 494.661682,275.208832 493.459106,278.639526 
	C493.019318,279.894043 492.770630,281.087952 490.927826,281.096252 
	C489.201996,281.104004 488.613464,280.157532 488.152588,278.847931 
	C486.944672,275.415649 485.745117,271.980438 484.542114,268.546417 
	C484.181458,267.516998 483.226837,266.257294 484.789032,265.613281 
	C486.173004,265.042694 487.375580,265.686401 487.896057,267.222290 
	C488.721954,269.659332 489.545746,272.097107 490.535156,275.021515 
	C492.768555,272.589508 492.677490,269.763153 493.941040,267.152893 
z"/>
<path fill="#2C211E" opacity="1.000000" stroke="none" 
	d="
M602.186951,242.204102 
	C602.190125,245.002106 602.139954,247.329147 602.199524,249.653366 
	C602.306641,253.832184 600.110352,255.828705 596.136658,255.819794 
	C592.221497,255.811035 589.894165,253.926804 589.974792,249.717728 
	C590.016052,247.558884 589.878540,245.391678 590.021729,243.241592 
	C590.104492,241.999390 589.085999,239.907364 591.723633,240.028320 
	C593.898804,240.128067 593.095642,241.907272 593.158630,243.046875 
	C593.277710,245.200195 593.153137,247.365906 593.226501,249.523178 
	C593.293457,251.493851 594.473206,252.727386 596.366333,252.641968 
	C598.039673,252.566422 598.931274,251.267227 598.949341,249.539444 
	C598.975342,247.047974 598.969360,244.556183 598.987854,242.064606 
	C598.995300,241.066711 598.955261,240.063370 600.407532,239.992889 
	C601.689392,239.930695 602.215942,240.514343 602.186951,242.204102 
z"/>
<path fill="#332826" opacity="1.000000" stroke="none" 
	d="
M369.197357,250.163208 
	C369.021606,253.153625 367.889496,255.043793 365.286377,255.721970 
	C363.382385,256.217987 361.515076,255.781860 360.277985,254.298782 
	C359.535675,253.408768 358.402802,252.034042 359.718018,250.770493 
	C360.697357,249.829636 361.629730,250.154083 362.643127,251.243469 
	C365.039795,253.819885 365.638428,251.887787 365.747437,249.711823 
	C365.872162,247.221954 365.797272,244.721130 365.776337,242.225342 
	C365.765991,240.990509 365.771545,239.937439 367.517639,239.943939 
	C369.291931,239.950546 369.227448,241.057281 369.220581,242.262970 
	C369.206360,244.758896 369.214752,247.254929 369.197357,250.163208 
z"/>
<path fill="#372D2B" opacity="1.000000" stroke="none" 
	d="
M465.176453,266.980286 
	C468.591248,264.101105 472.462280,265.939026 476.101654,265.499695 
	C476.519348,265.449280 477.256287,266.142883 477.453430,266.645294 
	C477.701874,267.278320 477.283020,268.128296 476.533630,268.076691 
	C471.601837,267.737122 473.267700,271.369904 473.070465,273.805695 
	C472.936951,275.454407 473.039062,277.122559 473.044586,278.781982 
	C473.048584,279.976349 473.109528,281.117889 471.324890,281.042267 
	C469.488373,280.964417 469.809265,279.667450 469.779205,278.572052 
	C469.738251,277.079651 469.552063,275.546967 469.809204,274.099243 
	C470.492645,270.251587 469.108398,267.993103 465.176453,266.980286 
z"/>
<path fill="#362C29" opacity="1.000000" stroke="none" 
	d="
M499.652435,252.092285 
	C500.108429,252.533844 500.285736,252.543320 500.429321,252.617798 
	C502.439606,253.660385 506.357147,251.025604 506.511383,254.418701 
	C506.610535,256.599640 502.879272,255.373138 500.883148,255.540756 
	C498.326782,255.755432 495.359009,256.353058 495.891693,251.864822 
	C496.242310,248.910629 495.916229,245.880264 495.979187,242.885803 
	C496.004364,241.688492 495.496643,240.010223 497.721680,240.142105 
	C499.513824,240.248337 499.184143,241.622314 499.213623,242.709808 
	C499.294647,245.702454 499.314148,248.696777 499.652435,252.092285 
z"/>
<path fill="#4B4240" opacity="1.000000" stroke="none" 
	d="
M557.029663,240.219849 
	C559.734619,239.910065 559.681030,241.506226 559.689026,243.044510 
	C559.697632,244.704025 559.866943,246.386032 559.657349,248.018585 
	C559.195496,251.616379 560.342285,253.350433 564.235168,252.755585 
	C565.360535,252.583649 567.207764,252.158249 567.005615,254.377350 
	C566.849365,256.092102 565.331726,255.597946 564.261719,255.682846 
	C556.043762,256.335022 555.978760,256.327942 556.080627,248.187454 
	C556.113281,245.577408 555.442444,242.890442 557.029663,240.219849 
z"/>
<path fill="#4B4240" opacity="1.000000" stroke="none" 
	d="
M479.043182,273.984039 
	C479.043701,271.699890 479.048828,269.889618 479.043182,268.079315 
	C479.038910,266.704803 479.044708,265.295685 480.985748,265.392609 
	C482.526703,265.469574 482.710449,266.590698 482.701477,267.849091 
	C482.675720,271.469513 482.688690,275.090149 482.684082,278.710724 
	C482.682526,279.925537 482.576324,281.009277 480.931396,281.070648 
	C478.864563,281.147766 479.059906,279.721375 479.048004,278.407562 
	C479.036072,277.091125 479.043976,275.774445 479.043182,273.984039 
z"/>
<path fill="#2C211E" opacity="1.000000" stroke="none" 
	d="
M552.986511,266.260925 
	C553.169189,270.576721 553.207764,274.523926 553.177917,278.470642 
	C553.170044,279.513000 553.589294,280.864929 551.766846,281.006500 
	C549.550964,281.178619 550.007812,279.590973 549.995117,278.375305 
	C549.958984,274.921783 550.029541,271.466736 549.965149,268.014069 
	C549.925110,265.865204 550.509094,264.778473 552.986511,266.260925 
z"/>
<path fill="#FEFEFE" opacity="1.000000" stroke="none" 
	d="
M161.560852,109.326759 
	C175.243103,114.366241 187.497116,121.207474 199.042862,129.426544 
	C201.721832,131.333618 202.494537,132.562988 200.116028,135.517700 
	C187.819046,150.793549 175.663681,166.186600 163.688263,181.715652 
	C160.989777,185.214874 159.148071,185.528854 155.483353,182.866928 
	C144.942917,175.210815 133.321655,169.619324 120.487259,166.883606 
	C117.496086,166.246017 116.384789,164.811844 117.033592,161.778290 
	C121.149406,142.534378 127.272026,124.091469 138.133133,107.456978 
	C139.880936,104.780121 141.408600,103.774460 144.942078,104.668930 
	C150.400818,106.050781 155.808746,107.574394 161.560852,109.326759 
z"/>
<path fill="#FEFEFE" opacity="1.000000" stroke="none" 
	d="
M192.434723,224.839752 
	C187.059235,212.237366 178.482681,202.368774 168.816772,193.376709 
	C166.351913,191.083649 165.591309,189.725494 168.054230,186.675186 
	C180.695969,171.018616 193.111115,155.176971 205.435486,139.268341 
	C207.454575,136.662018 208.623993,136.929504 210.849319,138.885864 
	C226.296631,152.466202 238.678879,168.290543 247.002106,187.590240 
	C247.594498,190.550385 245.438339,191.704712 244.026535,193.186142 
	C230.762589,207.104156 214.503830,216.521088 197.121399,224.228699 
	C195.741913,224.840393 194.319290,225.253098 192.434723,224.839752 
z"/>
<path fill="#E63C2D" opacity="1.000000" stroke="none" 
	d="
M191.834747,224.892319 
	C213.266190,217.076080 231.684402,205.260849 247.013702,188.243210 
	C248.690628,186.103943 250.238922,184.288177 251.902618,182.156906 
	C253.490707,177.093002 256.568359,173.101273 258.484222,168.203964 
	C259.014587,167.409042 259.410187,166.915665 259.867401,166.093872 
	C260.115845,165.645096 260.222961,165.469788 260.547913,165.076599 
	C264.526672,159.340942 262.381409,153.000320 263.341888,146.198990 
	C267.527496,155.709045 266.279053,164.670563 264.892639,174.040344 
	C263.311096,180.816971 260.697357,186.722733 256.110046,191.978119 
	C254.194412,194.240631 252.629547,196.361542 250.922424,198.797562 
	C247.885483,205.619415 242.262512,209.640503 237.112228,214.084366 
	C225.296005,224.279892 212.271240,232.459610 197.154144,237.676544 
	C194.954376,238.227661 193.111954,238.831558 191.022736,239.699844 
	C189.576324,241.477890 187.838715,242.054718 186.106689,242.633102 
	C172.350555,247.226959 158.146027,249.389069 143.736237,250.430481 
	C140.730515,250.647705 137.795593,250.189499 134.502762,249.250946 
	C126.505905,248.002518 118.901909,246.943558 110.903580,245.887115 
	C102.404877,245.284164 95.447495,241.725998 88.463303,237.219254 
	C88.027802,234.773956 86.015327,234.218201 84.683525,233.063416 
	C80.533638,229.465027 76.965157,225.408691 74.514320,220.374191 
	C77.025047,219.416428 77.902534,222.397278 80.331406,222.310516 
	C80.910355,222.311295 81.084412,222.368088 81.457832,222.611786 
	C81.887718,223.074799 82.116760,223.352112 82.530533,223.820557 
	C82.845871,224.132019 82.974960,224.253632 83.301109,224.554855 
	C83.629463,224.855408 83.760750,224.976349 84.289146,225.460876 
	C84.828163,225.939514 84.970085,226.054535 85.601051,226.451096 
	C86.651024,226.958405 87.226318,227.141281 88.124451,227.411346 
	C93.253036,230.653488 98.813553,232.202530 104.219261,234.917587 
	C111.303940,237.334824 118.311317,237.767426 125.818146,237.882111 
	C130.772522,235.522552 135.759354,236.398468 140.466827,235.968491 
	C154.113220,234.722031 167.316406,231.652710 180.404404,227.846237 
	C181.990189,227.385040 183.543976,226.720932 185.683823,227.018677 
	C187.932541,226.396149 189.757538,225.738052 191.834747,224.892319 
z"/>
<path fill="#FEFEFE" opacity="1.000000" stroke="none" 
	d="
M112.985626,149.975555 
	C112.043152,154.254013 110.953880,158.089050 110.311287,161.997543 
	C109.951614,164.185196 109.384567,165.196426 106.944862,165.028824 
	C96.789474,164.331131 87.135063,165.990860 78.548492,172.151840 
	C68.897392,131.679413 92.963531,100.951385 132.847610,103.165329 
	C123.576752,117.721878 117.195663,133.188950 112.985626,149.975555 
z"/>
<path fill="#FEFEFE" opacity="1.000000" stroke="none" 
	d="
M158.621887,101.253342 
	C154.285278,100.064423 150.324982,99.015503 145.968994,97.861778 
	C157.341324,84.387718 170.693909,77.867477 188.092468,82.222809 
	C200.665375,85.370155 212.079727,90.953461 222.718216,98.293411 
	C225.206177,100.009964 225.536591,101.426361 223.687576,103.852119 
	C218.751694,110.327583 213.824188,116.823723 209.248016,123.552826 
	C207.080658,126.739876 205.481171,125.986664 202.999161,124.145477 
	C189.573349,114.186127 174.887497,106.613571 158.621887,101.253342 
z"/>
<path fill="#FEFEFD" opacity="1.000000" stroke="none" 
	d="
M260.166687,167.731995 
	C257.933655,172.736267 255.805359,177.420334 252.306290,181.678192 
	C242.930634,162.803162 230.074753,146.668030 214.163406,132.922653 
	C212.369370,131.372849 212.328506,130.401642 213.774796,128.508881 
	C219.024979,121.637955 224.105469,114.634041 229.112885,107.582939 
	C230.650284,105.418114 231.718704,105.335762 233.678513,107.165756 
	C246.193390,118.851654 255.927048,132.268387 260.380585,149.071167 
	C261.685425,153.994156 261.127197,158.968048 260.766052,164.397156 
	C260.765778,164.858688 260.825684,164.894745 260.858765,164.883423 
	C260.339722,165.662430 260.561676,166.606186 260.166687,167.731995 
z"/>
<path fill="#FEFEFE" opacity="1.000000" stroke="none" 
	d="
M196.892319,238.069916 
	C200.787903,235.629120 204.808640,233.691345 208.764923,231.629883 
	C224.537125,223.411606 238.588043,212.965210 250.506256,199.269333 
	C252.274536,206.810394 253.311859,214.643188 251.542404,222.318665 
	C247.042679,241.837265 233.029648,252.654907 215.622589,259.904266 
	C209.237717,262.563324 202.498322,264.283325 194.977524,264.132843 
	C198.447845,255.572189 198.952255,247.120117 196.892319,238.069916 
z"/>
<path fill="#FEFEFE" opacity="1.000000" stroke="none" 
	d="
M141.231384,209.218643 
	C133.980713,217.913071 126.962410,226.337921 119.515335,235.277466 
	C116.737663,228.467484 115.933136,221.806885 115.077942,215.242172 
	C113.374084,202.162735 113.675987,189.040390 114.916290,175.911224 
	C115.193748,172.974213 116.448097,172.542206 118.741554,173.128036 
	C131.432404,176.369720 143.005478,181.981644 153.673477,189.556046 
	C155.535172,190.877869 155.468201,191.824295 154.079300,193.472519 
	C149.791092,198.561417 145.657425,203.780518 141.231384,209.218643 
z"/>
<path fill="#FEFDFD" opacity="1.000000" stroke="none" 
	d="
M186.004578,226.712219 
	C167.154068,234.438385 147.496567,238.008163 126.723663,237.879913 
	C137.234131,224.476486 148.265579,211.188950 159.077698,197.725266 
	C161.386398,194.850403 162.661316,196.687042 164.182968,198.085281 
	C173.064774,206.246719 180.472473,215.551895 186.004578,226.712219 
z"/>
<path fill="#FDFDFC" opacity="1.000000" stroke="none" 
	d="
M81.977425,178.040863 
	C89.272842,172.551910 97.370941,171.352722 105.817627,171.329391 
	C108.143898,171.322983 108.928215,171.964859 108.587898,174.545761 
	C106.117546,193.280945 106.845543,211.916473 111.209541,231.278641 
	C105.519737,226.693115 101.610062,221.669540 97.746567,216.618759 
	C89.997162,206.487900 84.599152,195.172089 80.810799,183.026611 
	C80.217926,181.125885 79.672256,179.539169 81.977425,178.040863 
z"/>
<path fill="#FEFDFD" opacity="1.000000" stroke="none" 
	d="
M134.298828,249.339020 
	C153.238602,249.026810 171.889252,246.052811 190.404770,239.965057 
	C191.584946,247.400482 192.076523,254.741440 188.451340,261.780029 
	C187.083664,264.435455 185.429245,265.246643 182.623734,264.971283 
	C165.473740,263.288055 149.345184,258.459442 134.298828,249.339020 
z"/>
<path fill="#FDFDFC" opacity="1.000000" stroke="none" 
	d="
M104.366920,234.733246 
	C98.261909,234.692490 93.062065,231.597885 87.607651,228.267670 
	C86.786446,227.698853 86.163033,227.492111 85.271599,227.125595 
	C85.034645,226.893051 85.040398,226.972397 85.075638,226.953964 
	C84.810410,226.783768 84.552711,226.578354 84.180573,226.126862 
	C84.023376,225.934448 84.003922,225.996048 84.033913,225.984070 
	C83.799149,225.779800 83.557068,225.562256 83.180489,225.132324 
	C83.023308,224.945160 83.000443,224.998535 83.025970,224.984711 
	C82.318787,224.476776 81.550720,224.017883 81.074341,222.827911 
	C80.933167,222.528015 80.842690,222.282700 80.789490,222.268616 
	C72.687325,210.646835 70.494469,198.060623 75.340904,188.134979 
	C81.502151,206.163879 91.280930,221.297287 104.366920,234.733246 
z"/>
<path fill="#FBFBFA" opacity="1.000000" stroke="none" 
	d="
M139.283447,259.806580 
	C151.825089,265.825806 164.621155,269.645508 178.232605,271.110748 
	C161.299469,281.359253 137.584656,276.140900 127.059875,253.164886 
	C131.258774,255.462845 135.097229,257.563538 139.283447,259.806580 
z"/>
<path fill="#F8F7F6" opacity="1.000000" stroke="none" 
	d="
M147.591263,86.592926 
	C141.604477,95.331207 133.589264,97.867188 123.752243,96.204636 
	C120.100075,95.587387 116.429367,97.828323 112.167641,96.651474 
	C124.872131,88.027611 138.438614,83.011047 154.470215,80.669525 
	C151.640396,83.104271 149.749527,84.731140 147.591263,86.592926 
z"/>
<path fill="#F8F7F6" opacity="1.000000" stroke="none" 
	d="
M255.841339,192.503815 
	C258.845673,186.480225 262.120209,180.933853 264.630554,174.643250 
	C265.773254,186.825256 263.866272,198.784271 259.290131,211.461349 
	C258.598938,204.430496 257.434875,198.625549 255.841339,192.503815 
z"/>
<path fill="#F8F7F6" opacity="1.000000" stroke="none" 
	d="
M124.022949,261.949493 
	C125.451401,263.983856 126.717819,265.695221 127.984238,267.406555 
	C121.268280,265.817200 115.595566,262.457825 110.185699,258.578888 
	C108.978622,257.713409 109.576500,257.028778 110.292046,256.234497 
	C112.379845,253.916992 114.424744,251.560852 116.588066,249.104492 
	C119.085327,253.404144 121.473122,257.515289 124.022949,261.949493 
z"/>
<path fill="#F8F7F6" opacity="1.000000" stroke="none" 
	d="
M88.182785,237.327850 
	C95.553780,239.460846 102.352829,243.508133 110.261841,245.584961 
	C103.394920,253.858841 103.355408,253.897491 95.855446,246.229294 
	C93.181969,243.495865 90.751236,240.525024 88.182785,237.327850 
z"/>
<path fill="#F0EFEF" opacity="1.000000" stroke="none" 
	d="
M68.425507,174.411713 
	C68.743797,171.709579 69.006157,169.442978 69.311752,166.802841 
	C72.858276,171.779831 72.764511,178.021469 69.182053,183.009735 
	C67.549980,180.295990 68.690620,177.477890 68.425507,174.411713 
z"/>
<path fill="#E0DEDE" opacity="1.000000" stroke="none" 
	d="
M192.471558,271.169678 
	C194.468491,271.081757 196.085495,271.002563 198.562759,270.881226 
	C195.123444,273.317688 192.145004,272.940308 189.140076,272.633057 
	C189.839478,271.483337 190.857620,271.106628 192.471558,271.169678 
z"/>
<path fill="#E0DEDE" opacity="1.000000" stroke="none" 
	d="
M187.303635,274.515625 
	C187.097794,274.540741 186.987244,274.508301 186.876694,274.475830 
	C187.050766,274.469910 187.224854,274.463959 187.303635,274.515625 
z"/>
<path fill="#E0DEDE" opacity="1.000000" stroke="none" 
	d="
M628.067383,246.721619 
	C630.463623,244.277557 629.920105,246.931885 630.267761,247.689026 
	C630.701538,248.633743 630.099060,249.150070 629.068298,249.135223 
	C627.511108,249.112823 627.750244,248.118729 628.067383,246.721619 
z"/>
<path fill="#F0EFEF" opacity="1.000000" stroke="none" 
	d="
M532.372314,252.742523 
	C530.601746,252.740372 528.848328,253.335098 528.867615,250.937012 
	C528.875671,249.935364 528.828430,248.861923 530.235596,248.903915 
	C531.643250,248.945908 533.295654,248.446762 534.285767,249.884888 
	C535.490234,251.634415 533.816895,252.035629 532.372314,252.742523 
z"/>
<path fill="#F8F7F6" opacity="1.000000" stroke="none" 
	d="
M529.305420,243.256454 
	C531.116516,243.111359 533.024048,242.042648 533.873413,244.037720 
	C534.336304,245.125061 533.351318,245.853226 532.296936,245.900162 
	C530.657349,245.973145 528.425232,246.658676 529.305420,243.256454 
z"/>
<path fill="#E0DEDE" opacity="1.000000" stroke="none" 
	d="
M443.880035,268.222595 
	C445.526276,268.832123 446.871063,269.488495 445.773315,271.102142 
	C444.797760,272.536133 443.125000,271.988312 441.708221,271.939514 
	C440.662262,271.903564 440.489105,271.110474 440.476532,270.227936 
	C440.444977,268.011444 441.961029,268.089569 443.880035,268.222595 
z"/>
<path fill="#E0DEDE" opacity="1.000000" stroke="none" 
	d="
M459.580383,274.591553 
	C454.357086,274.398865 459.027252,271.999207 458.228485,270.738586 
	C459.483398,271.707214 460.129761,272.873230 459.580383,274.591553 
z"/>
<path fill="#FBFBFA" opacity="1.000000" stroke="none" 
	d="
M743.918152,244.195831 
	C743.784302,246.539017 742.201416,246.179520 740.995361,246.322739 
	C739.763123,246.469055 738.665405,246.226547 738.667053,244.579681 
	C738.668823,242.851807 739.879517,242.915497 741.054565,242.923843 
	C742.043945,242.930862 743.047058,242.921738 743.918152,244.195831 
z"/>
<path fill="#E0DEDE" opacity="1.000000" stroke="none" 
	d="
M664.080444,246.467072 
	C662.793518,244.939346 661.982483,243.338196 664.537170,242.887512 
	C666.035156,242.623245 668.433899,242.389038 668.536377,244.412247 
	C668.662415,246.902191 666.149658,246.374008 664.080444,246.467072 
z"/>
<path fill="#F8F7F6" opacity="1.000000" stroke="none" 
	d="
M561.368347,277.896729 
	C560.543762,277.280914 559.970703,276.866760 559.688660,276.306152 
	C558.395752,273.736664 558.409912,271.190399 560.532288,269.086792 
	C561.651245,267.977692 563.185852,267.878937 564.644226,268.700378 
	C567.080688,270.072754 567.261597,272.354370 566.811707,274.693390 
	C566.291199,277.399414 564.491943,278.511475 561.368347,277.896729 
z"/>
<path fill="#FFFEFE" opacity="1.000000" stroke="none" 
	d="
M786.773682,245.223328 
	C785.251465,245.315460 783.249939,245.173691 783.677002,243.760559 
	C784.123657,242.282639 785.981628,242.725342 787.475586,243.830887 
	C787.465454,244.414032 787.271851,244.648727 786.773682,245.223328 
z"/>
<path fill="#FFFEFE" opacity="1.000000" stroke="none" 
	d="
M695.781372,245.175903 
	C694.326233,245.160187 692.242981,245.334396 692.764893,243.601303 
	C693.117676,242.429916 695.005432,242.705811 696.463135,243.649414 
	C696.470215,244.246033 696.282837,244.518814 695.781372,245.175903 
z"/>
<path fill="#F8F7F6" opacity="1.000000" stroke="none" 
	d="
M399.071198,268.225586 
	C403.153961,269.018005 403.357605,271.742157 402.952850,274.711121 
	C402.679840,276.713623 401.582123,277.980408 399.409912,278.123535 
	C396.977539,278.283783 395.645538,276.928619 395.242950,274.794189 
	C394.680359,271.811676 395.143921,269.157379 399.071198,268.225586 
z"/>
<path fill="#F0EFEF" opacity="1.000000" stroke="none" 
	d="
M708.484253,243.106812 
	C712.147644,242.438522 713.960693,243.774414 714.128784,247.139374 
	C714.230469,249.174850 714.080505,251.111450 712.010376,252.294373 
	C710.518616,253.146790 709.103882,252.951691 707.864197,251.950195 
	C706.158386,250.572098 705.831909,248.625427 706.138367,246.570190 
	C706.338867,245.225876 706.998108,244.089462 708.484253,243.106812 
z"/>
<path fill="#F0EFEF" opacity="1.000000" stroke="none" 
	d="
M518.550171,251.500702 
	C516.214355,253.342651 514.198486,253.242828 512.685425,251.129410 
	C511.097595,248.911652 511.190277,246.376801 512.697815,244.184555 
	C514.407837,241.697845 518.146912,242.538986 519.380981,245.513474 
	C520.220642,247.537460 519.768616,249.393951 518.550171,251.500702 
z"/>
<path fill="#F0EFEF" opacity="1.000000" stroke="none" 
	d="
M379.459717,276.719482 
	C379.023193,275.790833 378.766541,275.163147 378.682251,274.513123 
	C378.340912,271.881714 378.606750,269.439148 381.525787,268.376373 
	C383.302002,267.729675 384.854523,268.432495 385.812439,269.981140 
	C387.145935,272.137054 387.157745,274.559967 385.730042,276.559113 
	C384.096985,278.845825 381.869568,278.763702 379.459717,276.719482 
z"/>
<path fill="#E0DEDE" opacity="1.000000" stroke="none" 
	d="
M413.854736,268.163330 
	C415.746216,268.733490 417.963715,268.976837 416.705383,271.336243 
	C415.956940,272.739563 413.640991,273.087616 412.764130,272.306641 
	C411.532074,271.209320 410.975708,269.155273 413.854736,268.163330 
z"/>
<path fill="#F8F7F6" opacity="1.000000" stroke="none" 
	d="
M395.782898,244.908508 
	C394.712646,247.005310 393.077087,247.205841 391.430756,246.673767 
	C391.056610,246.552856 390.689301,244.981934 390.986237,244.453293 
	C392.515198,241.731232 394.202148,242.640945 395.782898,244.908508 
z"/>
<path fill="#7D6E5B" opacity="1.000000" stroke="none" 
	d="
M80.863693,222.925278 
	C81.594902,223.124390 82.256638,223.720764 82.984940,224.644012 
	C81.753784,225.168167 81.054062,224.546555 80.863693,222.925278 
z"/>
<path fill="#7D6E5B" opacity="1.000000" stroke="none" 
	d="
M260.210938,167.764374 
	C260.073547,167.079727 260.190826,166.164810 260.599976,165.061005 
	C260.749756,165.759430 260.607697,166.646759 260.210938,167.764374 
z"/>
<path fill="#7D6E5B" opacity="1.000000" stroke="none" 
	d="
M85.172058,227.217621 
	C85.828575,226.622253 86.361313,227.075684 87.098709,227.844421 
	C86.646080,227.933517 85.977768,227.737854 85.172058,227.217621 
z"/>
<path fill="#7D6E5B" opacity="1.000000" stroke="none" 
	d="
M83.038727,225.237213 
	C83.354126,225.094330 83.684937,225.243515 84.039833,225.682373 
	C83.727318,225.824478 83.390732,225.676880 83.038727,225.237213 
z"/>
<path fill="#7D6E5B" opacity="1.000000" stroke="none" 
	d="
M84.065552,226.216202 
	C84.390984,226.063782 84.758583,226.193130 85.118538,226.628998 
	C84.776497,226.789673 84.442116,226.643814 84.065552,226.216202 
z"/>
</svg>